<svg width="117" height="133" viewBox="0 0 117 133" fill="none" xmlns="http://www.w3.org/2000/svg">
<g clip-path="url(#clip0_316_156)">
<path d="M92.5635 148.319V148.01C92.6663 147.753 92.7435 147.367 92.7949 146.853C92.8464 146.339 92.8721 145.876 92.8721 145.464C92.8721 143.87 92.6406 142.121 92.1777 140.218C91.7663 138.264 90.9434 135.847 89.709 132.966L80.374 111.982C77.4938 111.879 73.6621 111.828 68.8789 111.828C64.0957 111.828 58.9268 111.828 53.3721 111.828C49.3089 111.828 45.3743 111.828 41.5684 111.828C37.8138 111.828 34.4193 111.879 31.3848 111.982L22.5127 132.349C21.7412 134.252 20.9183 136.335 20.0439 138.598C19.1696 140.861 18.7324 143.15 18.7324 145.464C18.7324 146.133 18.7839 146.699 18.8867 147.162C18.9896 147.573 19.0924 147.856 19.1953 148.01V148.319H3.45703V148.01C4.38281 147.033 5.54004 145.31 6.92871 142.841C8.31738 140.321 9.83464 137.184 11.4805 133.429L55.6865 35.3735H61.8584L103.75 129.649C104.727 131.861 105.73 134.021 106.759 136.129C107.839 138.187 108.842 140.038 109.768 141.684C110.693 143.33 111.516 144.719 112.236 145.85C112.956 146.982 113.445 147.702 113.702 148.01V148.319H92.5635ZM42.5713 105.193C45.5544 105.193 48.6146 105.193 51.752 105.193C54.8893 105.141 57.9495 105.116 60.9326 105.116C63.9671 105.064 66.873 105.039 69.6504 105.039C72.4277 104.987 74.9479 104.936 77.2109 104.884L55.5322 55.895L34.2393 105.193H42.5713Z" fill="white"/>
<path d="M29.9277 9.00391C29.8249 14.7643 29.722 20.3447 29.6191 25.7451C29.5677 28.0596 29.5163 30.4255 29.4648 32.8428C29.4648 35.2601 29.4391 37.6517 29.3877 40.0176C29.3877 42.332 29.362 44.5693 29.3105 46.7295C29.3105 48.8382 29.3105 50.7155 29.3105 52.3613C29.3105 55.8073 29.3363 59.9733 29.3877 64.8594C29.4391 69.7454 29.4906 74.7601 29.542 79.9033C29.6449 85.0465 29.7734 89.984 29.9277 94.7158C30.082 99.4476 30.262 103.382 30.4678 106.52C31.1878 106.622 32.1393 106.751 33.3223 106.905C34.5566 107.008 35.8424 107.111 37.1797 107.214C38.5169 107.265 39.8285 107.317 41.1143 107.368C42.4001 107.42 43.4801 107.445 44.3545 107.445C47.9548 107.445 51.6322 107.214 55.3867 106.751C59.1927 106.237 62.8444 105.311 66.3418 103.974C69.8906 102.636 73.208 100.811 76.2939 98.4961C79.4313 96.1302 82.1572 93.0957 84.4717 89.3926C86.8376 85.6895 88.6891 81.2406 90.0264 76.0459C91.3636 70.7998 92.0322 64.6279 92.0322 57.5303C92.0322 49.6611 91.0807 42.6663 89.1777 36.5459C87.2747 30.374 84.4717 25.1794 80.7686 20.9619C77.1169 16.7445 72.5651 13.5557 67.1133 11.3955C61.7129 9.18392 55.4896 8.07812 48.4434 8.07812C47.0547 8.07812 45.486 8.12956 43.7373 8.23242C41.9886 8.28385 40.2399 8.361 38.4912 8.46387C36.7939 8.5153 35.1738 8.61816 33.6309 8.77246C32.1393 8.87533 30.9049 8.95247 29.9277 9.00391ZM13.0322 2.06055C14.2152 2.11198 15.321 2.16341 16.3496 2.21484C17.224 2.26628 18.124 2.31771 19.0498 2.36914C19.9756 2.36914 20.7214 2.36914 21.2871 2.36914C22.2643 2.36914 23.8844 2.31771 26.1475 2.21484C28.4619 2.11198 31.085 2.00911 34.0166 1.90625C36.9482 1.80339 39.9827 1.70052 43.1201 1.59766C46.3089 1.49479 49.292 1.44336 52.0693 1.44336C59.527 1.44336 66.6247 2.36914 73.3623 4.2207C80.0999 6.07227 86.0146 9.10677 91.1064 13.3242C96.1982 17.5417 100.236 23.0706 103.219 29.9111C106.202 36.7516 107.693 45.1608 107.693 55.1387C107.693 62.2878 106.896 68.7168 105.302 74.4258C103.759 80.1348 101.573 85.1751 98.7441 89.5469C95.9154 93.9186 92.5208 97.6732 88.5605 100.811C84.6517 103.896 80.3057 106.442 75.5225 108.448C70.7907 110.454 65.7246 111.92 60.3242 112.846C54.9238 113.771 49.3434 114.234 43.583 114.234C41.5257 114.234 39.0312 114.157 36.0996 114.003C33.2194 113.9 30.3135 113.771 27.3818 113.617C24.4502 113.463 21.6729 113.309 19.0498 113.154C16.4782 113.051 14.4723 113 13.0322 113V112.691C13.3408 111.611 13.6237 110.274 13.8809 108.68C14.1895 107.085 14.4466 105.105 14.6523 102.739C14.8581 100.373 15.0124 97.5703 15.1152 94.3301C15.2181 91.0384 15.2695 87.2067 15.2695 82.835V32.6113C15.2695 28.2396 15.2181 24.4079 15.1152 21.1162C15.0124 17.7731 14.8581 14.9186 14.6523 12.5527C14.4466 10.1354 14.1895 8.10384 13.8809 6.45801C13.6237 4.81217 13.3408 3.44922 13.0322 2.36914V2.06055Z" fill="white"/>
</g>
<defs>
<clipPath id="clip0_316_156">
<rect width="117" height="133" fill="white"/>
</clipPath>
</defs>
</svg>
